<svg width="200" height="200" viewBox="0 0 200 200" fill="none" xmlns="http://www.w3.org/2000/svg">
<path fill-rule="evenodd" clip-rule="evenodd" d="M91.2064 33.2494C95.852 28.9169 103.148 28.9169 107.794 33.2494L138.262 61.6642C143.076 66.1537 143.265 73.618 138.685 78.3363C134.104 83.0545 126.489 83.2401 121.675 78.7506L99.5 58.0703L77.3251 78.7506C72.5112 83.2401 64.8956 83.0545 60.3152 78.3363C55.7348 73.618 55.9241 66.1537 60.738 61.6642L91.2064 33.2494Z" fill="#404040"/>
<path fill-rule="evenodd" clip-rule="evenodd" d="M100.5 114.029C91.4033 114.029 84.0289 121.403 84.0289 130.5C84.0289 139.597 91.4033 146.971 100.5 146.971C109.597 146.971 116.971 139.597 116.971 130.5C116.971 121.403 109.597 114.029 100.5 114.029ZM60 130.5C60 108.132 78.1325 90 100.5 90C122.868 90 141 108.132 141 130.5C141 152.868 122.868 171 100.5 171C78.1325 171 60 152.868 60 130.5Z" fill="#303030"/>
</svg>
